<?xml version="1.0" ?><svg data-name="Layer 1" id="Layer_1" viewBox="0 0 256 256" xmlns="http://www.w3.org/2000/svg"><defs><style>.cls-1{fill:none;stroke:#95cdd1;stroke-linecap:round;stroke-linejoin:round;stroke-width:6px;}</style></defs><title/><path class="cls-1" d="M65.44,150.35a36.29,36.29,0,0,1,0-72.59h0A46.74,46.74,0,0,1,158,69.24"/><path class="cls-1" d="M65.44,150.35H189.74A15.23,15.23,0,0,0,205,135.11h0a15.23,15.23,0,0,0-15.23-15.23h-.15a32.61,32.61,0,0,0-46.69-44.16"/><path class="cls-1" d="M135,84.93l-.24.33"/><line class="cls-1" x1="41.67" x2="32.62" y1="211.77" y2="227.45"/><line class="cls-1" x1="67.89" x2="54.63" y1="166.36" y2="189.34"/><line class="cls-1" x1="68.25" x2="58.86" y1="230.66" y2="246.92"/><line class="cls-1" x1="87.21" x2="77.64" y1="197.82" y2="214.4"/><line class="cls-1" x1="103.18" x2="98.18" y1="170.16" y2="178.81"/><line class="cls-1" x1="97.43" x2="88.38" y1="233.87" y2="249.55"/><line class="cls-1" x1="135.56" x2="110.38" y1="167.82" y2="211.44"/><line class="cls-1" x1="141.25" x2="131.86" y1="222.89" y2="239.15"/><line class="cls-1" x1="162.08" x2="152.51" y1="186.8" y2="203.38"/><line class="cls-1" x1="173.68" x2="168.69" y1="166.71" y2="175.36"/><path class="cls-1" d="M138.53,37.25a43.72,43.72,0,0,1,61.15,40.07c0,6-2,11.78-4.26,17"/><line class="cls-1" x1="155.98" x2="155.98" y1="21.85" y2="6.45"/><line class="cls-1" x1="183.72" x2="191.42" y1="29.28" y2="15.95"/><line class="cls-1" x1="183.72" x2="191.42" y1="29.28" y2="15.95"/><line class="cls-1" x1="204.02" x2="217.36" y1="49.58" y2="41.88"/><line class="cls-1" x1="211.46" x2="226.85" y1="77.32" y2="77.32"/><line class="cls-1" x1="204.02" x2="217.36" y1="105.05" y2="112.75"/></svg>